<svg width="65" height="60" viewBox="0 0 65 60" fill="none" xmlns="http://www.w3.org/2000/svg">
<path d="M15.912 35V33.2H4.68L8.856 29.42C12.96 25.712 14.652 23.12 14.652 19.772C14.652 16.424 12.6 13.544 8.1 13.544C6.156 13.544 4.5 13.94 2.592 14.624L2.844 16.316C4.86 15.56 6.516 15.308 7.848 15.308C11.052 15.308 12.42 17.432 12.42 19.916C12.42 22.544 11.448 24.596 6.768 28.916L2.016 33.344V35H15.912ZM31.356 39.212V32.84H34.74V31.04H31.356V13.904H28.224L18.972 31.112V32.84H29.268V39.212H31.356ZM29.268 31.04H21.096L29.196 15.776H29.268V31.04Z" fill="black"/>
<path d="M36.908 54.148L47.96 21.1L46.052 20.56L35 53.608L36.908 54.148Z" fill="black"/>
<path d="M53.444 56.572C54.776 54.592 55.892 52.396 56.648 50.308L63.128 32.74V30.904H48.98V32.74H60.968L55.388 48.256C54.164 51.64 53.012 54.232 52.112 55.816L53.444 56.572Z" fill="black"/>
</svg>
