<svg width="63" height="62" viewBox="0 0 63 62" fill="none" xmlns="http://www.w3.org/2000/svg">
<path fill-rule="evenodd" clip-rule="evenodd" d="M31.3097 38.0312C30.4977 37.558 30 36.6983 30 35.748V32.367C30.229 32.087 30.47 31.768 30.719 31.416C31.958 29.666 32.951 27.718 33.673 25.617C35.084 24.97 36 23.575 36 22V18C36 17.037 35.64 16.104 35 15.375V10.056C35.056 9.506 35.276 6.232 32.908 3.531C30.854 1.188 27.521 0 23 0C18.479 0 15.146 1.188 13.092 3.53C10.724 6.231 10.944 9.506 11 10.056V15.375C10.36 16.104 10 17.037 10 18V22C10 23.217 10.553 24.352 11.497 25.109C12.413 28.736 14.33 31.469 15 32.346V35.655C15 36.623 14.472 37.511 13.623 37.975L4.702 42.841C1.801 44.424 0 47.458 0 50.762V54C0 58.746 15.045 60 23 60C25.6264 60 29.0255 59.8633 32.4009 59.5094L32.2046 57.5459C29.5554 57.8266 26.4803 58 23 58C9.412 58 2 55.357 2 54V50.762C2 48.191 3.402 45.828 5.659 44.598L14.58 39.732C16.073 38.917 17 37.354 17 35.655V31.636L16.767 31.358C16.743 31.329 14.292 28.364 13.357 24.293L13.266 23.897L12.925 23.677C12.346 23.303 12 22.676 12 22V18C12 17.439 12.238 16.916 12.67 16.525L13 16.228V10L12.991 9.869L12.9909 9.86785C12.9828 9.7982 12.6634 7.05243 14.596 4.848C16.253 2.958 19.081 2 23 2C26.905 2 29.727 2.951 31.386 4.828C33.3047 6.99703 33.0199 9.76331 33.0093 9.8662C33.0091 9.86771 33.009 9.86865 33.009 9.869L33 16.228L33.33 16.526C33.762 16.916 34 17.439 34 18V22C34 22.873 33.428 23.637 32.578 23.899L32.08 24.052L31.92 24.547C31.251 26.628 30.298 28.55 29.086 30.26C28.789 30.681 28.5 31.054 28.249 31.339L28 31.623V35.748C28 37.518 28.983 39.109 30.566 39.901L30.7717 40.0038L31.3097 38.0312Z" fill="black"/>
<path fill-rule="evenodd" clip-rule="evenodd" d="M62 44H59.95C59.729 40.892 58.495 38.066 56.569 35.846L57.708 34.707C58.099 34.316 58.099 33.684 57.708 33.293C57.317 32.902 56.685 32.902 56.294 33.293L55.155 34.432C52.935 32.506 50.108 31.272 47.001 31.051V29C47.001 28.447 46.553 28 46.001 28C45.449 28 45.001 28.447 45.001 29V31.051C41.893 31.272 39.067 32.506 36.847 34.432L35.708 33.293C35.317 32.902 34.685 32.902 34.294 33.293C33.903 33.684 33.903 34.316 34.294 34.707L35.433 35.846C33.507 38.066 32.273 40.893 32.052 44H30C29.448 44 29 44.447 29 45C29 45.553 29.448 46 30 46H32.051C32.272 49.108 33.506 51.934 35.432 54.154L34.293 55.293L35.707 56.708L36.846 55.569C39.066 57.495 41.893 58.729 45 58.95V61C45 61.553 45.448 62 46 62C46.552 62 47 61.553 47 61V58.949C50.108 58.728 52.934 57.494 55.154 55.568L56.352 56.766C56.547 56.961 56.803 57.059 57.059 57.059C57.315 57.059 57.571 56.961 57.766 56.766C58.157 56.375 58.157 55.743 57.766 55.352L56.568 54.154C58.494 51.934 59.728 49.107 59.949 46H62C62.552 46 63 45.553 63 45C63 44.447 62.553 44 62 44ZM34 45C34 51.617 39.383 57 46 57C52.617 57 58 51.617 58 45C58 38.383 52.616 33 46 33C39.384 33 34 38.383 34 45Z" fill="black"/>
<path fill-rule="evenodd" clip-rule="evenodd" d="M30 44H32.05C32.271 40.892 33.505 38.066 35.431 35.846L34.292 34.707C33.901 34.316 33.901 33.684 34.292 33.293C34.683 32.902 35.315 32.902 35.706 33.293L36.845 34.432C39.065 32.506 41.892 31.272 44.999 31.051V29C44.999 28.447 45.447 28 45.999 28C46.551 28 46.999 28.447 46.999 29V31.051C50.107 31.272 52.933 32.506 55.153 34.432L56.292 33.293C56.683 32.902 57.315 32.902 57.706 33.293C58.097 33.684 58.097 34.316 57.706 34.707L56.567 35.846C58.493 38.066 59.727 40.893 59.948 44H62C62.553 44 63 44.447 63 45C63 45.553 62.552 46 62 46H59.949C59.728 49.107 58.494 51.934 56.568 54.154L57.707 55.293L56.293 56.708L55.154 55.568C52.934 57.494 50.107 58.729 47 58.95L47 61C47 61.553 46.552 62 46 62C45.448 62 45 61.553 45 61L45 58.949C41.892 58.728 39.066 57.495 36.846 55.569L35.648 56.766C35.453 56.961 35.197 57.059 34.941 57.059C34.685 57.059 34.429 56.961 34.234 56.766C33.843 56.375 33.843 55.743 34.234 55.352L35.432 54.154C33.506 51.934 32.272 49.108 32.051 46H30C29.448 46 29 45.553 29 45C29 44.447 29.448 44 30 44ZM58 45C58 51.617 52.617 57 46 57C39.383 57 34 51.617 34 45C34 38.383 39.384 33 46 33C52.616 33 58 38.383 58 45Z" fill="black"/>
<path d="M46 41C43.794 41 42 42.794 42 45C42 47.206 43.794 49 46 49C48.206 49 50 47.206 50 45C50 42.794 48.206 41 46 41ZM46 47C44.897 47 44 46.103 44 45C44 43.897 44.897 43 46 43C47.103 43 48 43.897 48 45C48 46.103 47.103 47 46 47Z" fill="black"/>
</svg>
