<svg width="59" height="59" viewBox="0 0 59 59" fill="none" xmlns="http://www.w3.org/2000/svg">
<g clip-path="url(#clip0)">
<path d="M57.8631 26.632L29.1821 0L0.502055 26.632C0.0980552 27.008 0.0740553 27.641 0.450055 28.046C0.824055 28.45 1.45906 28.473 1.86306 28.098L5.18206 25.016V58.365H53.1821V25.015L56.5011 28.097C56.6931 28.276 56.9381 28.364 57.1821 28.364C57.4511 28.364 57.7181 28.257 57.9141 28.045C58.2911 27.641 58.2671 27.008 57.8631 26.632ZM51.1821 56.365H7.18206V23.158L29.1821 2.729L51.1821 23.158V56.365Z" fill="black"/>
<path d="M13.1821 35.365H27.1821V21.365H13.1821V35.365ZM15.1821 23.365H25.1821V33.365H15.1821V23.365Z" fill="black"/>
<path d="M45.1821 21.365H31.1821V35.365H45.1821V21.365ZM43.1821 33.365H33.1821V23.365H43.1821V33.365Z" fill="black"/>
<path d="M13.1821 53.365H27.1821V39.365H13.1821V53.365ZM15.1821 41.365H25.1821V51.365H15.1821V41.365Z" fill="black"/>
<path d="M45.1821 39.365H31.1821V53.365H45.1821V39.365ZM43.1821 51.365H33.1821V41.365H43.1821V51.365Z" fill="black"/>
</g>
<defs>
<clipPath id="clip0">
<rect width="58.365" height="58.365" fill="white"/>
</clipPath>
</defs>
</svg>
