<svg width="66" height="66" viewBox="0 0 66 66" fill="none" xmlns="http://www.w3.org/2000/svg">
<path d="M33.7083 0.292751C33.6163 0.199751 33.5053 0.12675 33.3823 0.07575C33.1383 -0.02525 32.8623 -0.02525 32.6183 0.07575C32.4953 0.12675 32.3853 0.199751 32.2923 0.292751L27.2932 5.29175C26.9022 5.68275 26.9022 6.31475 27.2932 6.70575C27.4882 6.90075 27.7443 6.99875 28.0003 6.99875C28.2563 6.99875 28.5123 6.90075 28.7073 6.70575L32.0003 3.41275V23.9988C32.0003 24.5518 32.4483 24.9988 33.0003 24.9988C33.5523 24.9988 34.0003 24.5518 34.0003 23.9988V3.41275L37.2932 6.70575C37.4882 6.90075 37.7442 6.99875 38.0002 6.99875C38.2562 6.99875 38.5123 6.90075 38.7073 6.70575C39.0983 6.31475 39.0983 5.68275 38.7073 5.29175L33.7083 0.292751Z" fill="black"/>
<path d="M33.7083 65.7072C33.6163 65.8002 33.5053 65.8733 33.3823 65.9242C33.1383 66.0253 32.8623 66.0253 32.6183 65.9242C32.4953 65.8733 32.3853 65.8002 32.2923 65.7072L27.2932 60.7083C26.9022 60.3173 26.9022 59.6852 27.2932 59.2942C27.4882 59.0992 27.7443 59.0012 28.0003 59.0012C28.2563 59.0012 28.5123 59.0992 28.7073 59.2942L32.0003 62.5872V42.0012C32.0003 41.4482 32.4483 41.0012 33.0003 41.0012C33.5523 41.0012 34.0003 41.4482 34.0003 42.0012V62.5872L37.2932 59.2942C37.4882 59.0992 37.7442 59.0012 38.0002 59.0012C38.2562 59.0012 38.5123 59.0992 38.7073 59.2942C39.0983 59.6852 39.0983 60.3173 38.7073 60.7083L33.7083 65.7072Z" fill="black"/>
<path d="M10.3733 9.37188C10.2425 9.37117 10.1124 9.39804 9.98935 9.44896C9.7454 9.55007 9.55023 9.74523 9.44912 9.98919C9.39821 10.1122 9.37204 10.2416 9.37204 10.3731L9.37204 17.4428C9.37204 17.9958 9.81894 18.4426 10.3719 18.4426C10.6477 18.4426 10.898 18.3309 11.079 18.1499C11.26 17.9689 11.3717 17.7186 11.3717 17.4428L11.3717 12.7858L25.9282 27.3423C26.3193 27.7333 26.9521 27.7326 27.3425 27.3423C27.7328 26.952 27.7335 26.3191 27.3425 25.9281L12.786 11.3716L17.443 11.3716C17.7187 11.3716 17.969 11.2599 18.1501 11.0788C18.3311 10.8978 18.4428 10.6475 18.4428 10.3717C18.4428 9.81877 17.9959 9.37188 17.443 9.37188L10.3733 9.37188Z" fill="black"/>
<path d="M56.6282 55.6269C56.6289 55.7577 56.6021 55.8878 56.5512 56.0108C56.4501 56.2548 56.2549 56.4499 56.0109 56.5511C55.8879 56.602 55.7585 56.6281 55.627 56.6281L48.5573 56.6281C48.0044 56.6281 47.5575 56.1812 47.5575 55.6283C47.5575 55.3525 47.6692 55.1022 47.8502 54.9212C48.0312 54.7402 48.2816 54.6284 48.5573 54.6284L53.2143 54.6284L38.6578 40.0719C38.2668 39.6809 38.2675 39.0481 38.6578 38.6577C39.0482 38.2674 39.681 38.2667 40.072 38.6577L54.6285 53.2142L54.6285 48.5572C54.6285 48.2815 54.7403 48.0311 54.9213 47.8501C55.1023 47.6691 55.3526 47.5574 55.6284 47.5574C56.1813 47.5574 56.6282 48.0043 56.6282 48.5572L56.6282 55.6269Z" fill="black"/>
<path d="M56.6282 10.3731C56.6289 10.2423 56.6021 10.1122 56.5512 9.98916C56.4501 9.74521 56.2549 9.55005 56.0109 9.44893C55.8879 9.39802 55.7585 9.37186 55.627 9.37186L48.5573 9.37186C48.0044 9.37186 47.5575 9.81875 47.5575 10.3717C47.5575 10.6475 47.6692 10.8978 47.8502 11.0788C48.0312 11.2598 48.2816 11.3716 48.5573 11.3716L53.2143 11.3716L38.6578 25.9281C38.2668 26.3191 38.2675 26.9519 38.6578 27.3423C39.0482 27.7326 39.681 27.7333 40.072 27.3423L54.6285 12.7858L54.6285 17.4428C54.6285 17.7185 54.7403 17.9689 54.9213 18.1499C55.1023 18.3309 55.3526 18.4426 55.6284 18.4426C56.1813 18.4426 56.6282 17.9957 56.6282 17.4428L56.6282 10.3731Z" fill="black"/>
<path d="M10.3733 56.6281C10.2425 56.6288 10.1124 56.602 9.98935 56.551C9.7454 56.4499 9.55023 56.2548 9.44912 56.0108C9.39821 55.8878 9.37204 55.7584 9.37204 55.6269L9.37204 48.5572C9.37204 48.0042 9.81894 47.5574 10.3719 47.5574C10.6477 47.5574 10.898 47.6691 11.079 47.8501C11.26 48.0311 11.3717 48.2814 11.3717 48.5572L11.3717 53.2142L25.9282 38.6577C26.3193 38.2667 26.9521 38.2674 27.3425 38.6577C27.7328 39.048 27.7335 39.6809 27.3425 40.0719L12.786 54.6284L17.443 54.6284C17.7187 54.6284 17.969 54.7401 18.1501 54.9212C18.3311 55.1022 18.4428 55.3525 18.4428 55.6283C18.4428 56.1812 17.9959 56.6281 17.443 56.6281L10.3733 56.6281Z" fill="black"/>
<path d="M65.7072 33.708C65.8002 33.616 65.8732 33.505 65.9242 33.382C66.0252 33.138 66.0252 32.862 65.9242 32.618C65.8732 32.495 65.8002 32.385 65.7072 32.292L60.7083 27.293C60.3173 26.902 59.6852 26.902 59.2942 27.293C59.0992 27.488 59.0012 27.744 59.0012 28C59.0012 28.256 59.0992 28.512 59.2942 28.707L62.5872 32L42.0012 32C41.4482 32 41.0012 32.448 41.0012 33C41.0012 33.552 41.4482 34 42.0012 34L62.5872 34L59.2942 37.293C59.0992 37.488 59.0012 37.744 59.0012 38C59.0012 38.256 59.0992 38.512 59.2942 38.707C59.6852 39.098 60.3172 39.098 60.7082 38.707L65.7072 33.708Z" fill="black"/>
<path d="M0.292751 33.708C0.199751 33.616 0.12675 33.505 0.0757497 33.382C-0.0252503 33.138 -0.0252503 32.862 0.0757498 32.618C0.12675 32.495 0.199751 32.385 0.292751 32.292L5.29175 27.293C5.68275 26.902 6.31475 26.902 6.70575 27.293C6.90075 27.488 6.99875 27.744 6.99875 28C6.99875 28.256 6.90075 28.512 6.70575 28.707L3.41275 32L23.9988 32C24.5518 32 24.9988 32.448 24.9988 33C24.9988 33.552 24.5518 34 23.9988 34L3.41275 34L6.70575 37.293C6.90075 37.488 6.99875 37.744 6.99875 38C6.99875 38.256 6.90075 38.512 6.70575 38.707C6.31475 39.098 5.68275 39.098 5.29175 38.707L0.292751 33.708Z" fill="black"/>
<circle cx="33" cy="33" r="3.25" stroke="black" stroke-width="1.5"/>
</svg>
