<svg width="60" height="60" viewBox="0 0 60 60" fill="none" xmlns="http://www.w3.org/2000/svg">
<g clip-path="url(#clip0)">
<path d="M50.975 20.694C50.448 11.694 43.029 4.5 34.084 4.5C28.654 4.5 23.396 7.163 20.138 11.508C20.064 11.469 19.985 11.443 19.91 11.406C19.712 11.31 19.511 11.218 19.305 11.137C19.19 11.092 19.075 11.051 18.959 11.01C18.757 10.939 18.553 10.877 18.344 10.82C18.228 10.789 18.113 10.757 17.995 10.73C17.771 10.679 17.543 10.64 17.312 10.606C17.21 10.591 17.11 10.571 17.007 10.559C16.677 10.523 16.341 10.5 16 10.5C11.038 10.5 7 14.537 7 19.5C7 19.629 7.007 19.755 7.016 19.881C2.857 22.148 0 26.899 0 31.654C0 38.737 5.762 44.5 12.845 44.5H18C18.552 44.5 19 44.053 19 43.5C19 42.947 18.552 42.5 18 42.5H12.845C6.865 42.5 2 37.635 2 31.654C2 27.5 4.705 23.188 8.432 21.401L9 21.13V20.5C9 20.377 9.008 20.251 9.015 20.125L9.024 19.95L9.012 19.762C9.007 19.675 9 19.588 9 19.5C9 15.641 12.14 12.5 16 12.5C16.309 12.5 16.614 12.527 16.917 12.567C16.995 12.577 17.072 12.59 17.149 12.603C17.417 12.647 17.681 12.705 17.941 12.78C17.975 12.79 18.01 12.796 18.043 12.806C18.329 12.893 18.608 13.004 18.881 13.128C18.95 13.159 19.018 13.193 19.086 13.227C19.328 13.346 19.565 13.478 19.793 13.626C21.72 14.875 23 17.039 23 19.5C23 20.053 23.448 20.5 24 20.5C24.552 20.5 25 20.053 25 19.5C25 16.746 23.754 14.281 21.8 12.629C24.666 8.879 29.388 6.5 34.084 6.5C41.828 6.5 48.262 12.635 48.932 20.387C47.91 20.315 46.379 20.278 44.849 20.512C44.303 20.595 43.928 21.105 44.011 21.651C44.086 22.146 44.512 22.501 44.998 22.501C45.048 22.501 45.099 22.497 45.15 22.489C47.374 22.153 49.693 22.468 49.834 22.487C54.49 23.372 58 27.661 58 32.472C58 38.001 53.501 42.5 47.972 42.5H44C43.448 42.5 43 42.947 43 43.5C43 44.053 43.448 44.5 44 44.5H47.972C54.604 44.5 60 39.104 60 32.472C60 26.983 56.173 22.06 50.975 20.694Z" fill="black"/>
<path d="M32.912 54.784V51.808C34.904 51.352 36.608 49.888 36.608 47.416C36.608 44.752 34.928 43.816 32.936 43.096C30.944 42.352 29.744 41.872 29.744 40.288C29.744 39.112 30.536 38.056 32.288 38.056C33.2 38.056 34.328 38.296 35.168 38.632L35.624 36.976C34.832 36.64 33.824 36.4 32.912 36.352V33.88H31.232V36.424C28.952 36.736 27.488 38.464 27.488 40.504C27.488 42.88 28.952 43.84 30.896 44.56C33.056 45.376 34.352 45.832 34.352 47.704C34.352 49.168 33.2 50.224 31.52 50.224C30.176 50.224 29.024 49.912 27.92 49.432L27.488 51.208C28.688 51.712 29.936 51.976 31.232 51.976V54.784H32.912Z" fill="black"/>
</g>
<defs>
<clipPath id="clip0">
<rect width="60" height="60" fill="white"/>
</clipPath>
</defs>
</svg>
