<svg width="67" height="62" viewBox="0 0 67 62" fill="none" xmlns="http://www.w3.org/2000/svg">
<path d="M54 21C54 32.0236 44.8442 41 33.5 41C22.1559 41 13 32.0236 13 21C13 9.97636 22.1559 1 33.5 1C44.8442 1 54 9.97636 54 21Z" stroke="black" stroke-width="2"/>
<path d="M42 41C42 52.0236 32.8442 61 21.5 61C10.1559 61 1 52.0236 1 41C1 29.9764 10.1559 21 21.5 21C32.8442 21 42 29.9764 42 41Z" stroke="black" stroke-width="2"/>
<path d="M66 41C66 52.0236 56.8442 61 45.5 61C34.1559 61 25 52.0236 25 41C25 29.9764 34.1559 21 45.5 21C56.8442 21 66 29.9764 66 41Z" stroke="black" stroke-width="2"/>
</svg>
