<svg width="36" height="32" viewBox="0 0 36 32" fill="none" xmlns="http://www.w3.org/2000/svg">
<rect x="0.5" y="0.5" width="35" height="31" rx="2.5" stroke="black"/>
<path d="M21.0003 20C21.0003 19.4477 21.448 19 22.0003 19H30.0003C30.5526 19 31.0003 19.4477 31.0003 20C31.0003 20.5523 30.5526 21 30.0003 21H22.0003C21.448 21 21.0003 20.5523 21.0003 20Z" fill="black"/>
<path d="M21.0003 24C21.0003 23.4477 21.448 23 22.0003 23H30.0003C30.5526 23 31.0003 23.4477 31.0003 24C31.0003 24.5523 30.5526 25 30.0003 25H22.0003C21.448 25 21.0003 24.5523 21.0003 24Z" fill="black"/>
<path d="M8.12162 3.05026L8.82873 3.75737L3.87898 8.70712L3.17188 8.00001L8.12162 3.05026Z" fill="black"/>
<path d="M12.3643 3.05026L13.0714 3.75737L4.58612 12.2427L3.87902 11.5355L12.3643 3.05026Z" fill="black"/>
</svg>
