<svg width="38" height="38" viewBox="0 0 38 38" fill="none" xmlns="http://www.w3.org/2000/svg">
<path d="M25.3642 26.1794L25.3642 26.1794L25.3665 26.1883L26.6145 30.8802L26.6154 30.8834C26.8192 31.6292 26.7379 32.2974 26.4267 32.8364C26.1172 33.3725 25.5773 33.7874 24.8247 34.0051L24.8233 34.0055C24.4609 34.1115 24.0971 34.2046 23.7405 34.2911L23.7405 34.2911L23.7368 34.292C23.6961 34.3022 23.6553 34.3124 23.6145 34.3226C23.1326 34.443 22.6426 34.5655 22.1727 34.7408L22.1631 34.7444C22.1591 34.7457 22.1548 34.7472 22.1503 34.7488C22.1453 34.7506 22.1399 34.7527 22.1341 34.7549C20.9457 35.1187 19.7913 34.9796 18.6673 34.3306C18.5721 34.2757 18.4672 34.2088 18.3568 34.1378C16.6564 33.004 15.445 31.4168 14.5501 30.1218C12.2456 26.7307 10.7125 22.921 9.98904 18.796C9.39996 15.3688 9.35935 12.4823 9.8363 9.68025L9.83631 9.68021C10.0322 8.52869 10.4019 6.88133 11.3774 5.47186C11.9612 4.64026 12.7432 4.09451 13.7208 3.83257L13.7208 3.83257L13.7229 3.832L16.6302 3.03929L16.6377 3.03729L16.6411 3.03637C17.3724 2.85741 18.0323 2.94489 18.5635 3.25154C19.0946 3.55818 19.4887 4.07907 19.6833 4.79055L19.6856 4.79895L19.6882 4.80725C19.8475 5.31906 19.9852 5.84895 20.1153 6.36844C20.1793 6.64165 20.2537 6.91956 20.3235 7.18011L20.3246 7.18399L20.9483 9.5117C21.1597 10.3008 21.069 10.9759 20.7698 11.4942C20.4706 12.0125 19.9313 12.4285 19.1422 12.64C19.0205 12.6726 18.8984 12.7065 18.7788 12.7396L18.7782 12.7398C18.6577 12.7732 18.5397 12.806 18.4229 12.8373L18.4196 12.8382C18.3585 12.855 18.2974 12.8718 18.2362 12.8887C17.658 13.0482 17.0774 13.2083 16.4788 13.3404L16.125 13.4185L16.0891 13.7791C15.9923 14.7509 16.0352 15.7746 16.2219 17.0467L16.2219 17.0467L16.223 17.0535C16.6354 19.6169 17.3396 21.8335 18.3815 23.8282L18.3815 23.8282L18.3839 23.8328C18.4954 24.041 18.6369 24.2552 18.7699 24.4566L18.775 24.4644C18.8095 24.5184 18.843 24.5703 18.8759 24.6213C18.9383 24.718 18.9988 24.8117 19.0604 24.9115L19.2556 25.2275L19.6145 25.1319L22.3057 24.4154L22.3065 24.4151C23.0613 24.2129 23.7245 24.293 24.2564 24.6001C24.7919 24.9093 25.1827 25.4427 25.3642 26.1794Z" stroke="black"/>
<path d="M27 11.8301C29.8698 13.487 30.853 17.1565 29.1962 20.0263M30.3661 8C35.149 10.7614 36.7878 16.8773 34.0263 21.6603" stroke="black" stroke-linecap="round"/>
</svg>
