<svg width="46" height="32" viewBox="0 0 46 32" fill="none" xmlns="http://www.w3.org/2000/svg">
<path d="M34.4444 8.28099L34.5768 8.51117L34.8417 8.53031C40.7997 8.96102 45.5 13.9318 45.5 20C45.5 26.3513 40.3513 31.5 34 31.5H33.9492H33.8984H33.8477H33.7969H33.7461H33.6953H33.6445H33.5938H33.543H33.4922H33.4414H33.3906H33.3398H33.2891H33.2383H33.1875H33.1367H33.0859H33.0352H32.9844H32.9336H32.8828H32.832H32.7812H32.7305H32.6797H32.6289H32.5781H32.5273H32.4766H32.4258H32.375H32.3242H32.2734H32.2227H32.1719H32.1211H32.0703H32.0195H31.9688H31.918H31.8672H31.8164H31.7656H31.7148H31.6641H31.6133H31.5625H31.5117H31.4609H31.4102H31.3594H31.3086H31.2578H31.207H31.1562H31.1055H31.0547H31.0039H30.9531H30.9023H30.8516H30.8008H30.75H30.6992H30.6484H30.5977H30.5469H30.4961H30.4453H30.3945H30.3438H30.293H30.2422H30.1914H30.1406H30.0898H30.0391H29.9883H29.9375H29.8867H29.8359H29.7852H29.7344H29.6836H29.6328H29.582H29.5312H29.4805H29.4297H29.3789H29.3281H29.2773H29.2266H29.1758H29.125H29.0742H29.0234H28.9727H28.9219H28.8711H28.8203H28.7695H28.7188H28.668H28.6172H28.5664H28.5156H28.4648H28.4141H28.3633H28.3125H28.2617H28.2109H28.1602H28.1094H28.0586H28.0078H27.957H27.9062H27.8555H27.8047H27.7539H27.7031H27.6523H27.6016H27.5508H27.5H27.4492H27.3984H27.3477H27.2969H27.2461H27.1953H27.1445H27.0938H27.043H26.9922H26.9414H26.8906H26.8398H26.7891H26.7383H26.6875H26.6367H26.5859H26.5352H26.4844H26.4336H26.3828H26.332H26.2812H26.2305H26.1797H26.1289H26.0781H26.0273H25.9766H25.9258H25.875H25.8242H25.7734H25.7227H25.6719H25.6211H25.5703H25.5195H25.4688H25.418H25.3672H25.3164H25.2656H25.2148H25.1641H25.1133H25.0625H25.0117H24.9609H24.9102H24.8594H24.8086H24.7578H24.707H24.6562H24.6055H24.5547H24.5039H24.4531H24.4023H24.3516H24.3008H24.25H24.1992H24.1484H24.0977H24.0469H23.9961H23.9453H23.8945H23.8438H23.793H23.7422H23.6914H23.6406H23.5898H23.5391H23.4883H23.4375H23.3867H23.3359H23.2852H23.2344H23.1836H23.1328H23.082H23.0312H22.9805H22.9297H22.8789H22.8281H22.7773H22.7266H22.6758H22.625H22.5742H22.5234H22.4727H22.4219H22.3711H22.3203H22.2695H22.2188H22.168H22.1172H22.0664H22.0156H21.9648H21.9141H21.8633H21.8125H21.7617H21.7109H21.6602H21.6094H21.5586H21.5078H21.457H21.4062H21.3555H21.3047H21.2539H21.2031H21.1523H21.1016H21.0508H21H20.9492H20.8984H20.8477H20.7969H20.7461H20.6953H20.6445H20.5938H20.543H20.4922H20.4414H20.3906H20.3398H20.2891H20.2383H20.1875H20.1367H20.0859H20.0352H19.9844H19.9336H19.8828H19.832H19.7812H19.7305H19.6797H19.6289H19.5781H19.5273H19.4766H19.4258H19.375H19.3242H19.2734H19.2227H19.1719H19.1211H19.0703H19.0195H18.9688H18.918H18.8672H18.8164H18.7656H18.7148H18.6641H18.6133H18.5625H18.5117H18.4609H18.4102H18.3594H18.3086H18.2578H18.207H18.1562H18.1055H18.0547H18.0039H17.9531H17.9023H17.8516H17.8008H17.75H17.6992H17.6484H17.5977H17.5469H17.4961H17.4453H17.3945H17.3438H17.293H17.2422H17.1914H17.1406H17.0898H17.0391H16.9883H16.9375H16.8867H16.8359H16.7852H16.7344H16.6836H16.6328H16.582H16.5312H16.4805H16.4297H16.3789H16.3281H16.2773H16.2266H16.1758H16.125H16.0742H16.0234H15.9727H15.9219H15.8711H15.8203H15.7695H15.7188H15.668H15.6172H15.5664H15.5156H15.4648H15.4141H15.3633H15.3125H15.2617H15.2109H15.1602H15.1094H15.0586H15.0078H14.957H14.9062H14.8555H14.8047H14.7539H14.7031H14.6523H14.6016H14.5508H14.5H14.4492H14.3984H14.3477H14.2969H14.2461H14.1953H14.1445H14.0938H14.043H13.9922H13.9414H13.8906H13.8398H13.7891H13.7383H13.6875H13.6367H13.5859H13.5352H13.4844H13.4336H13.3828H13.332H13.2812H13.2305H13.1797H13.1289H13.0781H13.0273H12.9766H12.9258H12.875H12.8242H12.7734H12.7227H12.6719H12.6211H12.5703H12.5195H12.4688H12.418H12.3672H12.3164H12.2656H12.2148H12.1641H12.1133H12.0625H12.0117H11.9609H11.9102H11.8594H11.8086H11.7578H11.707H11.6562H11.6055H11.5547H11.5039H11.4531H11.4023H11.3516H11.3008H11.25H11.1992H11.1484H11.0977H11.0469H10.9961H10.9453H10.8945H10.8438H10.793H10.7422H10.6914H10.6406H10.5898H10.5391H10.4883H10.4375H10.3867H10.3359H10.2852H10.2344H10.1836H10.1328H10.082H10.0312H9.98047H9.92969H9.87891H9.82812H9.77734H9.72656H9.67578H9.625H9.57422H9.52344H9.47266H9.42188H9.37109H9.32031H9.26953H9.21875H9.16797H9.11719H9.06641H9.01562H8.96484H8.91406H8.86328H8.8125H8.76172H8.71094H8.66016H8.60938H8.55859H8.50781H8.45703H8.40625H8.35547H8.30469H8.25391H8.20312H8.15234H8.10156H8.05078H8C3.85786 31.5 0.5 28.1421 0.5 24C0.5 20.8496 2.44261 18.1517 5.19719 17.0411L5.52234 16.91L5.50991 16.5597C5.50332 16.3739 5.5 16.1874 5.5 16C5.5 7.43959 12.4396 0.5 21 0.5C26.7492 0.5 31.768 3.62984 34.4444 8.28099Z" stroke="black"/>
<path d="M27.5 18.5C27.5 22.399 24.5579 25.5 21 25.5C17.4421 25.5 14.5 22.399 14.5 18.5C14.5 16.5339 15.2509 13.9969 16.4788 11.9543C17.7235 9.88368 19.3435 8.5 21 8.5C22.6565 8.5 24.2765 9.88368 25.5212 11.9543C26.7491 13.9969 27.5 16.5339 27.5 18.5Z" stroke="black"/>
</svg>
