<svg width="16" height="32" viewBox="0 0 16 32" fill="none" xmlns="http://www.w3.org/2000/svg">
<path d="M8 28C7.447 28 7 28.447 7 29V31C7 31.553 7.447 32 8 32C8.553 32 9 31.553 9 31V29C9 28.447 8.553 28 8 28Z" fill="black"/>
<path d="M8.113 0.0010004C8.075 0.0010004 8.037 0 7.998 0C5.882 0 3.892 0.815 2.383 2.304C0.846999 3.819 0 5.842 0 8C0 8.553 0.447 9 1 9C1.553 9 2 8.553 2 8C2 6.382 2.635 4.864 3.787 3.728C4.94 2.591 6.475 1.963 8.086 2.001C11.247 2.045 13.955 4.753 13.999 7.914C14.028 9.998 13 11.916 11.248 13.046C8.588 14.762 7 17.794 7 21.158V24C7 24.553 7.447 25 8 25C8.553 25 9 24.553 9 24V21.158C9 18.516 10.276 16.053 12.332 14.726C14.667 13.22 16.038 10.663 15.999 7.886C15.939 3.599 12.401 0.0610004 8.113 0.0010004Z" fill="black"/>
</svg>
