<svg width="42" height="42" viewBox="0 0 42 42" fill="none" xmlns="http://www.w3.org/2000/svg">
<path d="M38.8619 32.585L32.0208 29.6219C31.8598 29.5414 31.6813 29.3447 31.528 29.0822L36.0955 29.0787C36.1753 29.0864 38.0583 29.2586 39.5682 28.6097C40.1401 28.3633 40.5657 27.8768 40.7365 27.2748C40.9087 26.6672 40.7995 26.0239 40.4383 25.5087C39.1328 23.6509 36.0857 18.7964 35.9905 13.8726C35.9884 13.7879 35.7126 5.4145 27.4435 5.3466C26.2262 5.3564 25.1006 5.5629 24.0765 5.9437C23.8532 5.3746 23.5242 4.781 23.0349 4.2224C21.5978 2.5816 19.2647 1.75 16.1 1.75C12.9353 1.75 10.6022 2.5816 9.1644 4.221C7.5068 6.1117 7.6608 8.4042 7.7 8.7885V12.5118C7.252 13.0221 7 13.6752 7 14.3493V17.1493C7 18.0012 7.3871 18.7957 8.0479 19.3256C8.6891 21.8645 10.031 23.7776 10.5 24.3915V26.7078C10.5 27.3854 10.1304 28.007 9.5361 28.3318L3.2914 31.738C1.2607 32.8468 0 34.9706 0 37.2834V40.25H30.8H32.2H42V37.6621C42 35.4977 40.7974 33.5531 38.8619 32.585ZM30.8 38.85H1.4V37.2834C1.4 35.4837 2.3814 33.8296 3.9613 32.9686L10.206 29.5624C11.2511 28.9919 11.9 27.8978 11.9 26.7085V23.8952L11.7369 23.7006C11.7201 23.6803 10.0044 21.6048 9.3499 18.7551L9.2862 18.4779L9.0475 18.3239C8.6422 18.0621 8.4 17.6232 8.4 17.15V14.35C8.4 13.9573 8.5666 13.5912 8.869 13.3175L9.1 13.1096V8.75L9.0937 8.6583C9.0916 8.6394 8.8536 6.699 10.2172 5.1436C11.3771 3.8206 13.3567 3.15 16.1 3.15C18.8335 3.15 20.8089 3.8157 21.9702 5.1296C22.5477 5.782 22.8382 6.5107 22.9831 7.1365C22.9943 7.1855 23.0048 7.2338 23.0146 7.2821C23.0244 7.3318 23.0349 7.3815 23.0426 7.4291C23.0517 7.4837 23.0594 7.5355 23.0671 7.5873C23.0727 7.6244 23.0783 7.6622 23.0825 7.6979C23.093 7.7847 23.1014 7.8687 23.107 7.9464C23.1077 7.9527 23.1077 7.9583 23.1077 7.9646C23.1126 8.0402 23.1161 8.1116 23.1182 8.1767C23.1182 8.1893 23.1182 8.1998 23.1189 8.2124C23.1203 8.2705 23.1203 8.3258 23.1196 8.3741C23.1196 8.3811 23.1196 8.3881 23.1196 8.3951C23.1168 8.5596 23.1056 8.6576 23.1056 8.6597L23.1 13.1096L23.331 13.3182C23.6334 13.5912 23.8 13.9573 23.8 14.35V17.15C23.8 17.7611 23.3996 18.2959 22.8046 18.4793L22.456 18.5864L22.344 18.9329C21.8757 20.3896 21.2086 21.735 20.3602 22.932C20.1523 23.2267 19.95 23.4878 19.7743 23.6873L19.6 23.8861V26.7736C19.6 26.9507 19.6175 27.1243 19.6448 27.2951C19.6504 27.3315 19.6602 27.3665 19.6672 27.4029C19.6945 27.5436 19.7309 27.6815 19.7757 27.8159C19.7862 27.8474 19.7974 27.8775 19.8093 27.909C19.8639 28.0553 19.9276 28.1967 20.0018 28.3325C20.0102 28.3479 20.0179 28.364 20.0263 28.3794C20.1278 28.5586 20.2447 28.7287 20.3791 28.8855L20.5387 29.0822H20.566C20.8061 29.3188 21.0819 29.5246 21.3955 29.6814L28.0826 33.0246C29.7591 33.8618 30.8 35.546 30.8 37.4199V38.85ZM40.6 38.85H32.2V37.4199C32.2 35.0126 30.8623 32.8489 28.7098 31.7723L23.9092 29.3713C24.0275 29.1011 24.0429 28.7917 23.9393 28.4935C23.7678 28 23.3198 27.6815 22.7983 27.6815H21.2464C21.2142 27.6248 21.1932 27.5625 21.1673 27.5023C21.1323 27.4218 21.091 27.3427 21.0679 27.258C21.0252 27.1026 21 26.9402 21 26.7736V24.4069C21.1603 24.2109 21.329 23.9876 21.5033 23.7412C22.3706 22.5162 23.0657 21.1526 23.5711 19.6819C24.5588 19.229 25.2 18.2525 25.2 17.15V14.35C25.2 13.6759 24.948 13.0228 24.5 12.5125V8.7892C24.5182 8.6142 24.5574 8.0409 24.4412 7.2919C25.3428 6.9377 26.3529 6.755 27.4442 6.7459C34.3329 6.8026 34.5842 13.6136 34.5912 13.9006C34.6941 19.2087 37.9134 24.3495 39.2931 26.313C39.4114 26.481 39.4471 26.6924 39.3904 26.8919C39.3582 27.0067 39.2658 27.2153 39.0159 27.3224C37.8399 27.8285 36.2446 27.685 36.1627 27.6815H31.3446C30.8945 27.6815 30.4843 27.9104 30.247 28.2933C30.0104 28.6748 29.988 29.141 30.1868 29.5414C30.4059 29.9831 30.793 30.5732 31.4293 30.8903L38.2522 33.8457C39.7005 34.5772 40.6 36.0374 40.6 37.6621V38.85Z" fill="black"/>
</svg>
