<svg width="28" height="36" viewBox="0 0 28 36" fill="none" xmlns="http://www.w3.org/2000/svg">
<circle cx="14" cy="14" r="5.5" stroke="black"/>
<path d="M27.5 14C27.5 19.1758 24.1072 24.5563 20.6175 28.7025C18.8837 30.7624 17.1486 32.4916 15.8465 33.706C15.1957 34.3129 14.6539 34.7905 14.2756 35.1157C14.1708 35.2058 14.0785 35.2842 14 35.3504C13.9215 35.2842 13.8292 35.2058 13.7244 35.1157C13.3461 34.7905 12.8043 34.3129 12.1535 33.706C10.8514 32.4916 9.11625 30.7624 7.38254 28.7025C3.89284 24.5563 0.5 19.1758 0.5 14C0.5 6.54416 6.54416 0.5 14 0.5C21.4558 0.5 27.5 6.54416 27.5 14Z" stroke="black"/>
</svg>
