<svg width="44" height="38" viewBox="0 0 44 38" fill="none" xmlns="http://www.w3.org/2000/svg">
<path d="M25.1205 26.2392L25.1204 26.2393L25.1239 26.2526L26.372 30.9444L26.372 30.9444L26.3733 30.9493C26.5621 31.6401 26.4825 32.2381 26.2092 32.7114C25.9368 33.1832 25.4548 33.5623 24.7543 33.765L24.7522 33.7656C24.3949 33.8701 24.0353 33.9621 23.6806 34.0482L23.6806 34.0481L23.675 34.0495C23.6338 34.0599 23.5924 34.0702 23.5509 34.0806C23.0715 34.2003 22.5681 34.3261 22.0843 34.5066L22.0786 34.5087C22.0742 34.5102 22.0696 34.5118 22.0648 34.5136C22.0606 34.5151 22.0561 34.5167 22.0515 34.5185C20.935 34.8579 19.855 34.7282 18.7913 34.1141C18.7025 34.0628 18.603 33.9995 18.4928 33.9287C16.8347 32.8226 15.646 31.2694 14.7552 29.9804C12.4716 26.6195 10.9518 22.8436 10.2344 18.7532C9.64925 15.3487 9.61043 12.4914 10.0818 9.72219L10.0818 9.72214C10.2763 8.57896 10.6388 6.97728 11.5815 5.61482C12.1315 4.83166 12.8639 4.32074 13.7845 4.07405L13.7845 4.07406L13.7877 4.07319L16.6929 3.28105L16.6945 3.28063L16.7022 3.27857C17.379 3.11353 17.9704 3.19837 18.4375 3.46805C18.9044 3.73763 19.2616 4.20012 19.4412 4.85651L19.4446 4.8691L19.4485 4.88156C19.6054 5.38572 19.7416 5.90931 19.8714 6.42735C19.9361 6.70384 20.0113 6.98426 20.0806 7.24305L20.0821 7.24869L20.7058 9.57641C20.903 10.3124 20.8131 10.9174 20.5523 11.3692C20.2915 11.8209 19.8125 12.2013 19.0765 12.3985C18.9539 12.4314 18.831 12.4654 18.7118 12.4985L18.7104 12.4989C18.5897 12.5324 18.4728 12.5648 18.3572 12.5958L18.3523 12.5971C18.2912 12.6139 18.2302 12.6308 18.1692 12.6476C17.5902 12.8073 17.0158 12.9657 16.424 13.0963L15.8932 13.2135L15.8393 13.7544C15.74 14.752 15.7848 15.797 15.9736 17.083L15.9735 17.083L15.9751 17.0932C16.3912 19.6789 17.1028 21.9219 18.1589 23.944L18.1589 23.944L18.1626 23.9508C18.2796 24.1694 18.4266 24.3919 18.5575 24.5902L18.5644 24.6006C18.6 24.6565 18.6339 24.7089 18.6668 24.7598C18.7282 24.855 18.7863 24.945 18.8467 25.0428L19.1395 25.5168L19.6778 25.3735L22.3691 24.6569L22.3702 24.6566C23.0719 24.4686 23.665 24.5479 24.1304 24.8166C24.5986 25.0869 24.9528 25.5585 25.1205 26.2392Z" stroke="black" stroke-width="1.5"/>
<path d="M33.955 20V19.1H28.339L30.427 17.21C32.479 15.356 33.325 14.06 33.325 12.386C33.325 10.712 32.299 9.272 30.049 9.272C29.077 9.272 28.249 9.47 27.295 9.812L27.421 10.658C28.429 10.28 29.257 10.154 29.923 10.154C31.525 10.154 32.209 11.216 32.209 12.458C32.209 13.772 31.723 14.798 29.383 16.958L27.007 19.172V20H33.955ZM41.677 22.106V18.92H43.369V18.02H41.677V9.452H40.111L35.485 18.056V18.92H40.633V22.106H41.677ZM40.633 18.02H36.547L40.597 10.388H40.633V18.02Z" fill="black"/>
</svg>
