<svg xmlns="http://www.w3.org/2000/svg" width="85" height="85" viewBox="0 0 85 85">
  <defs>
    <style>
      .cls-1 {
        fill: #e5001f;
        fill-rule: evenodd;
      }
    </style>
  </defs>
  <path id="Forma_1" data-name="Forma 1" class="cls-1" d="M310.005,113.241a2,2,0,0,0,0-3.991H300.2v-5.264h9.808a2,2,0,0,0,0-3.99H300.2V91.8a2,2,0,0,0-2-2H290V80a2,2,0,1,0-3.99,0V89.8H280.75V80a2,2,0,0,0-3.991,0V89.8H271.5V80a2,2,0,1,0-3.99,0V89.8h-5.264V80a2,2,0,0,0-3.991,0V89.8h-5.264V80A2,2,0,1,0,249,80V89.8h-8.2a2,2,0,0,0-2,2V100H229a2,2,0,0,0,0,3.99H238.8v5.264H229a2,2,0,0,0,0,3.991H238.8v5.264H229a2,2,0,0,0,0,3.99H238.8v5.264H229a2,2,0,0,0,0,3.991H238.8v5.264H229a2,2,0,0,0,0,3.99H238.8v8.2a2,2,0,0,0,2,2H249v9.808a1.995,1.995,0,0,0,3.99,0V151.2h5.264v9.808a2,2,0,0,0,3.991,0V151.2h5.264v9.808a2,2,0,0,0,3.99,0V151.2h5.264v9.808a2,2,0,0,0,3.991,0V151.2h5.263v9.808a2,2,0,0,0,3.991,0V151.2h8.2a2,2,0,0,0,2-2V141h9.808a1.995,1.995,0,1,0,0-3.99H300.2V131.75h9.808a2,2,0,0,0,0-3.991H300.2V122.5h9.808a2,2,0,0,0,0-3.99H300.2v-5.264h9.808Zm-13.8,5.264h-1.76a2,2,0,1,0,0,3.99h1.76v5.264h-1.76a2,2,0,1,0,0,3.991h1.76v5.264h-1.76a2,2,0,1,0,0,3.99h1.76v6.2H290v-1.76a2,2,0,1,0-3.99,0v1.76H280.75v-1.76a2,2,0,1,0-3.991,0v1.76H271.5v-1.76a2,2,0,1,0-3.99,0v1.76h-5.264v-1.76a2,2,0,1,0-3.991,0v1.76h-5.264v-1.76a2,2,0,1,0-3.99,0v1.76h-6.2V141h1.76a2,2,0,1,0,0-3.99h-1.76V131.75h1.76a2,2,0,1,0,0-3.991h-1.76V122.5h1.76a2,2,0,1,0,0-3.99h-1.76v-5.264h1.76a2,2,0,1,0,0-3.991h-1.76v-5.264h1.76a2,2,0,1,0,0-3.99h-1.76v-6.2H249v1.76a2,2,0,1,0,3.99,0v-1.76h5.264v1.76a2,2,0,0,0,3.991,0v-1.76h5.264v1.76a2,2,0,1,0,3.99,0v-1.76h5.264v1.76a2,2,0,0,0,3.991,0v-1.76h5.263v1.76a2,2,0,0,0,3.991,0v-1.76h6.2V100h-1.761a2,2,0,0,0,0,3.99h1.761v5.264h-1.761a2,2,0,0,0,0,3.991h1.761v5.264h0Zm-15.977-10.73H258.77a2,2,0,0,0-2,1.995v21.46a2,2,0,0,0,2,2h21.46a2,2,0,0,0,2-2V109.77A2,2,0,0,0,280.23,107.775Zm-2,21.459H260.766V111.766h17.468v17.468Z" transform="translate(-227 -78)"/>
</svg>
