<svg width="40" height="40" viewBox="0 0 40 40" fill="none" xmlns="http://www.w3.org/2000/svg">
<path d="M22.536 13C23.16 13 23.64 12.52 23.64 11.8C23.64 11.248 23.232 10.768 22.608 10.768C22.008 10.768 21.504 11.248 21.504 11.944C21.504 12.52 21.936 13 22.536 13ZM20.544 28L22.68 15.856H19.44L19.248 16.96H21.12L19.176 28H20.544Z" fill="black"/>
<path d="M39.5 20C39.5 9.23045 30.7696 0.5 20 0.5C9.23045 0.5 0.5 9.23045 0.5 20C0.5 30.7696 9.23045 39.5 20 39.5C30.7696 39.5 39.5 30.7696 39.5 20Z" stroke="#959595"/>
</svg>
