<svg width="47" height="38" viewBox="0 0 47 38" fill="none" xmlns="http://www.w3.org/2000/svg">
<circle cx="12.605" cy="13" r="8.5" stroke="black"/>
<path d="M24.4707 38C24.1738 38 23.9423 37.7429 23.9734 37.4477L24.1449 35.8184C24.8661 28.9671 19.4941 23 12.605 23C5.71591 23 0.343923 28.9671 1.06511 35.8184L1.23661 37.4477C1.26769 37.7429 1.03621 38 0.739357 38V38C0.483478 38 0.268891 37.8068 0.242105 37.5523L0.0706026 35.9231C-0.712734 28.4814 5.12221 22 12.605 22C20.0878 22 25.9228 28.4814 25.1394 35.9231L24.9679 37.5523C24.9411 37.8068 24.7266 38 24.4707 38V38Z" fill="black"/>
<path d="M19.605 12C14.6344 12 10.605 9.53757 10.605 6.5" stroke="black" stroke-linecap="round"/>
<path d="M6.10495 11.5C7.10495 11.5 10.605 9 10.605 6.5" stroke="black" stroke-linecap="round"/>
<circle cx="33.605" cy="9" r="8.5" stroke="black"/>
<path d="M27.105 8C32.0755 8 36.105 5.53757 36.105 2.5" stroke="black" stroke-linecap="round"/>
<path d="M40.605 7.5C39.605 7.5 36.105 5 36.105 2.5" stroke="black" stroke-linecap="round"/>
<path d="M44.9737 33.4477C44.9426 33.7429 45.1741 34 45.4709 34C45.7268 34 45.9414 33.8068 45.9682 33.5523L46.1397 31.9231C46.923 24.4814 41.0881 18 33.6053 18C29.7935 18 26.4094 19.6818 24.1099 22.3157C23.9351 22.5159 23.9599 22.818 24.1578 22.9954V22.9954C24.3709 23.1865 24.7002 23.1587 24.8892 22.9437C27.0058 20.5358 30.1103 19 33.6053 19C40.4944 19 45.8664 24.9671 45.1452 31.8184L44.9737 33.4477Z" fill="black"/>
</svg>
