<svg width="22" height="21" viewBox="0 0 22 21" fill="none" xmlns="http://www.w3.org/2000/svg">
<path d="M14.7409 14.5161C14.6297 14.0645 14.3829 13.7149 14.0262 13.509C13.6725 13.3048 13.2451 13.2613 12.7869 13.3841L11.355 13.7653C11.3035 13.6819 11.2503 13.6013 11.2 13.5224C11.1263 13.4109 11.0568 13.3055 11.0033 13.2056C10.4641 12.1734 10.0973 11.0221 9.88165 9.68198C9.7845 9.02001 9.76376 8.49801 9.81248 8.00846C10.1729 7.92892 10.521 7.83078 10.8583 7.73795C10.9853 7.70392 11.114 7.66701 11.241 7.63297C12.1937 7.3777 12.6454 6.59542 12.3901 5.64275L12.0582 4.40428C12.0206 4.26365 11.9817 4.11848 11.9485 3.97664C11.8789 3.69869 11.804 3.41002 11.7167 3.12952C11.5971 2.69236 11.3482 2.35306 10.9973 2.15048C10.6464 1.94791 10.2224 1.89865 9.77535 2.0087C9.77081 2.00991 9.77081 2.00991 9.76628 2.01113L8.21888 2.43305C7.63821 2.58864 7.16922 2.91608 6.82266 3.41008C6.26877 4.21003 6.06446 5.13511 5.95871 5.75664C5.699 7.28247 5.72251 8.8491 6.04011 10.6967C6.43138 12.9282 7.26127 14.9911 8.50945 16.8276C8.98994 17.523 9.65869 18.4038 10.6086 19.0366C10.6674 19.0743 10.729 19.1137 10.7865 19.147C11.4509 19.5305 12.1466 19.614 12.8578 19.3918C12.864 19.3877 12.8714 19.3882 12.8776 19.3841C13.1317 19.2892 13.399 19.2249 13.6814 19.1541C13.8732 19.1076 14.0711 19.057 14.2695 18.9989C14.7253 18.8671 15.0741 18.6083 15.2783 18.2546C15.4842 17.8979 15.5294 17.4677 15.405 17.0124L14.7409 14.5161Z" fill="white"/>
</svg>
