<svg xmlns="http://www.w3.org/2000/svg" width="66.41" height="66.187" viewBox="0 0 66.41 66.187">
  <metadata><?xpacket begin="﻿" id="W5M0MpCehiHzreSzNTczkc9d"?>
<x:xmpmeta xmlns:x="adobe:ns:meta/" x:xmptk="Adobe XMP Core 5.6-c138 79.159824, 2016/09/14-01:09:01        ">
   <rdf:RDF xmlns:rdf="http://www.w3.org/1999/02/22-rdf-syntax-ns#">
      <rdf:Description rdf:about=""/>
   </rdf:RDF>
</x:xmpmeta>
                                                                                                    
                                                                                                    
                                                                                                    
                                                                                                    
                                                                                                    
                                                                                                    
                                                                                                    
                                                                                                    
                                                                                                    
                                                                                                    
                                                                                                    
                                                                                                    
                                                                                                    
                                                                                                    
                                                                                                    
                                                                                                    
                                                                                                    
                                                                                                    
                                                                                                    
                                                                                                    
                           
<?xpacket end="w"?></metadata>
<defs>
    <style>
      .cls-1 {
        fill: #e5001f;
        fill-rule: evenodd;
      }
    </style>
  </defs>
  <path id="Forma_1" data-name="Forma 1" class="cls-1" d="M1216.61,342.983h-8.18a4.562,4.562,0,0,0-3.28-3.253V328.183a1.145,1.145,0,0,0-2.29,0V339.73a4.549,4.549,0,1,0,5.57,5.53h8.18A1.139,1.139,0,1,0,1216.61,342.983Zm-12.6,3.416a2.277,2.277,0,1,1,2.29-2.277A2.288,2.288,0,0,1,1204.01,346.4Zm24.18-25.489,4.69,4.663a1.128,1.128,0,0,0,.81.333,1.162,1.162,0,0,0,.81-0.333,9.23,9.23,0,0,0,0-13.076,9.36,9.36,0,0,0-13.16,0,1.147,1.147,0,0,0,0,1.61l5.23,5.193-1.95,1.934a30.978,30.978,0,0,0-41.22,0l-1.95-1.934,5.22-5.193a1.123,1.123,0,0,0,0-1.61,9.348,9.348,0,0,0-13.15,0,9.212,9.212,0,0,0,0,13.076,1.162,1.162,0,0,0,.81.333,1.145,1.145,0,0,0,.81-0.333l4.69-4.663,1.92,1.908a30.588,30.588,0,0,0,6.59,47.79l-3.46,3.447a1.138,1.138,0,1,0,1.61,1.61l3.96-3.927a31.009,31.009,0,0,0,27.12,0l3.95,3.927a1.164,1.164,0,0,0,.81.334,1.139,1.139,0,0,0,.81-1.944l-3.47-3.447a30.582,30.582,0,0,0,6.6-47.79Zm4.69-6.8a6.962,6.962,0,0,1,.74,8.986l-9.78-9.725A7.055,7.055,0,0,1,1232.88,314.107Zm-58.48,8.985a6.949,6.949,0,0,1,.74-8.985,7.057,7.057,0,0,1,9.04-.739Zm29.61,49.491a28.462,28.462,0,1,1,28.63-28.461A28.576,28.576,0,0,1,1204.01,372.583Zm22.77-41.6a26.43,26.43,0,0,0-9.55-9.492c-0.02-.013-0.03-0.032-0.05-0.043s-0.04-.012-0.06-0.022a26.388,26.388,0,0,0-26.22,0,0.484,0.484,0,0,0-.06.022c-0.02.011-.03,0.03-0.05,0.043a26.43,26.43,0,0,0-9.55,9.492c-0.01.02-.03,0.03-0.04,0.049s-0.01.043-.02,0.063a25.94,25.94,0,0,0,0,26.06c0.01,0.02.01,0.042,0.02,0.062a0.319,0.319,0,0,0,.06.075,26.447,26.447,0,0,0,9.53,9.467c0.02,0.012.03,0.031,0.05,0.043a0.854,0.854,0,0,0,.09.037,26.387,26.387,0,0,0,26.16,0,0.854,0.854,0,0,0,.09-0.037c0.02-.012.03-0.031,0.05-0.043a26.439,26.439,0,0,0,9.53-9.467,0.319,0.319,0,0,0,.06-0.075c0.01-.019.01-0.042,0.02-0.062a25.94,25.94,0,0,0,0-26.06c-0.01-.02-0.01-0.042-0.02-0.063S1226.79,331,1226.78,330.98ZM1217,364.211l-0.55-.94a1.142,1.142,0,0,0-1.56-.417,1.13,1.13,0,0,0-.42,1.555l0.55,0.944a23.951,23.951,0,0,1-9.86,2.618v-1.08a1.15,1.15,0,0,0-2.3,0v1.08a23.936,23.936,0,0,1-9.86-2.618l0.55-.944a1.13,1.13,0,0,0-.42-1.555,1.144,1.144,0,0,0-1.56.417l-0.55.94a24.2,24.2,0,0,1-7.22-7.176l0.95-.543a1.138,1.138,0,0,0,.42-1.555,1.153,1.153,0,0,0-1.57-.416l-0.95.545a23.687,23.687,0,0,1-2.63-9.8h1.09a1.139,1.139,0,1,0,0-2.277h-1.09a23.67,23.67,0,0,1,2.63-9.8l0.95,0.545a1.146,1.146,0,0,0,.57.153,1.164,1.164,0,0,0,1-.569,1.148,1.148,0,0,0-.42-1.556l-0.95-.545a24.112,24.112,0,0,1,7.22-7.176l0.54,0.941a1.164,1.164,0,0,0,1,.569,1.141,1.141,0,0,0,.99-1.708l-0.55-.944a23.967,23.967,0,0,1,9.86-2.618v1.08a1.145,1.145,0,0,0,2.29,0v-1.08a24.038,24.038,0,0,1,9.87,2.618l-0.55.944a1.141,1.141,0,0,0,.99,1.708,1.148,1.148,0,0,0,.99-0.569l0.55-.941a24.228,24.228,0,0,1,7.22,7.176l-0.95.543a1.13,1.13,0,0,0-.42,1.555,1.147,1.147,0,0,0,.99.57,1.119,1.119,0,0,0,.57-0.153l0.95-.545a23.537,23.537,0,0,1,2.64,9.8h-1.09a1.139,1.139,0,1,0,0,2.277H1228a23.537,23.537,0,0,1-2.64,9.805l-0.95-.546a1.144,1.144,0,0,0-1.56.417,1.13,1.13,0,0,0,.42,1.555l0.95,0.543A24.2,24.2,0,0,1,1217,364.211Z" transform="translate(-1170.81 -309.813)"/>
</svg>
