<svg width="38" height="38" viewBox="0 0 38 38" fill="none" xmlns="http://www.w3.org/2000/svg"><path d="M25.364 26.18l.002.008 1.248 4.692.001.003c.204.746.123 1.414-.188 1.953-.31.537-.85.951-1.602 1.17h-.002c-.362.105-.726.199-1.082.285l-.004.001-.122.03c-.482.121-.972.243-1.442.419l-.01.003a.504.504 0 0 0-.013.005l-.016.006c-1.188.364-2.343.225-3.467-.424a7.854 7.854 0 0 1-.31-.193c-1.7-1.134-2.912-2.721-3.807-4.016-2.304-3.391-3.838-7.201-4.561-11.326-.589-3.427-.63-6.314-.153-9.116.196-1.151.566-2.799 1.541-4.208a4.067 4.067 0 0 1 2.344-1.64h.002l2.907-.793.008-.002h.003c.731-.18 1.391-.092 1.923.215.53.306.925.827 1.12 1.539l.002.008.002.008c.16.512.297 1.042.427 1.561.064.274.139.552.209.812v.004l.624 2.328c.212.789.121 1.464-.178 1.982-.3.518-.839.934-1.628 1.146-.122.033-.244.066-.363.1l-.356.097-.003.001-.184.05c-.578.16-1.159.32-1.757.452l-.354.079-.036.36c-.097.972-.054 1.996.133 3.268l.001.006c.412 2.564 1.117 4.78 2.159 6.775l.002.005c.111.208.253.422.386.624l.005.007.1.157c.063.097.124.19.185.29l.196.316.358-.095 2.692-.717c.755-.202 1.418-.122 1.95.185.536.31.927.843 1.108 1.58z" stroke="#000"/><path d="M27 11.83a6 6 0 0 1 2.196 8.196M30.366 8c4.783 2.761 6.422 8.877 3.66 13.66" stroke="#000" stroke-linecap="round"/></svg>