<svg width="46" height="32" viewBox="0 0 46 32" fill="none" xmlns="http://www.w3.org/2000/svg"><path d="M34.444 8.281l.133.23.265.02C40.8 8.96 45.5 13.93 45.5 20c0 6.351-5.149 11.5-11.5 11.5H8a7.5 7.5 0 0 1-2.803-14.459l.325-.131-.012-.35c-.007-.186-.01-.373-.01-.56C5.5 7.44 12.44.5 21 .5c5.75 0 10.768 3.13 13.444 7.781z" stroke="#000"/><path d="M27.5 18.5c0 3.899-2.942 7-6.5 7s-6.5-3.101-6.5-7c0-1.966.75-4.503 1.979-6.546C17.724 9.884 19.343 8.5 21 8.5s3.276 1.384 4.521 3.454c1.228 2.043 1.979 4.58 1.979 6.546z" stroke="#000"/></svg>