<svg xmlns="http://www.w3.org/2000/svg" width="19.938" height="24.18" viewBox="0 0 19.938 24.18"><defs><style>.cls-1{fill:#adb8c1;fill-rule:evenodd}</style></defs><path class="cls-1" d="M17.538 24.18H2.4a2.4 2.4 0 0 1-2.4-2.4V2.4A2.4 2.4 0 0 1 2.4 0h11.2a.5.5 0 0 1 .349.14l5.847 5.85a.5.5 0 0 1 .144.35v15.44a2.4 2.4 0 0 1-2.402 2.4zM14.09 1.68v2.75a1.422 1.422 0 0 0 1.411 1.42h2.751zm4.859 5.15h-3.448a2.393 2.393 0 0 1-2.4-2.4V.98h-10.7A1.42 1.42 0 0 0 .989 2.4v19.38a1.419 1.419 0 0 0 1.412 1.42h15.138a1.419 1.419 0 0 0 1.411-1.42V6.83zm-3.271 8.5H4.26a.49.49 0 1 1 0-.98h11.418a.49.49 0 1 1 0 .98zm0-2.25H4.26a.5.5 0 0 1 0-.99h11.418a.5.5 0 0 1 0 .99zm0-2.26H4.26a.492.492 0 0 1-.493-.49.5.5 0 0 1 .493-.5h11.418a.5.5 0 0 1 .493.5.492.492 0 0 1-.493.49zM4.26 16.6h4.793a.5.5 0 0 1 0 .99H4.26a.5.5 0 0 1 0-.99zm6.39 0h.219a.5.5 0 0 1 0 .99h-.221a.5.5 0 0 1 .002-.99z"/></svg>