<svg xmlns="http://www.w3.org/2000/svg" width="79.875" height="43.688" viewBox="0 0 79.875 43.688"><defs><style>.cls-1{fill:#e5001f;fill-rule:evenodd}</style></defs><path id="Forma_1" data-name="Forma 1" class="cls-1" d="M739.525 110.039h2.34V96H662v14.039h2.34a2.34 2.34 0 1 1 0 4.679H662v24.958h79.865v-24.958h-2.34a2.34 2.34 0 1 1 0-4.679zM671.515 135h-4.835v-6.239h4.835V135zm9.359 0H676.2v-6.239h4.679V135zm9.359 0h-4.679v-6.239h4.679V135zm9.36 0h-4.68v-6.239h4.68V135zm9.359 0h-4.68v-6.239h4.68V135zm9.359 0h-4.68v-6.239h4.68V135zm9.359 0h-4.68v-6.239h4.68V135zm9.515 0h-4.835v-6.239h4.835V135zm0-29.236a7.02 7.02 0 0 0 0 13.237v5.08h-70.5V119a7.02 7.02 0 0 0 0-13.237v-5.08h70.505v5.08zm-41.492-2.741v18.719h12.479v-18.723h-12.479zm7.8 14.039h-3.12V107.7h3.12v9.359zm10.919-14.039v18.719h12.478v-18.723h-12.479zm7.8 14.039h-3.119V107.7h3.119v9.359zm-45.235-14.039v18.719h12.478v-18.723h-12.48zm7.8 14.039h-3.12V107.7h3.12v9.359z" transform="translate(-662 -96)"/></svg>