<svg xmlns="http://www.w3.org/2000/svg" width="20.531" height="13.344" viewBox="0 0 20.531 13.344"><defs><style>.cls-1{fill:#ec1d23;fill-rule:evenodd}</style></defs><path id="Forma_1" data-name="Forma 1" class="cls-1" d="M568.474 815.975l-4.109 4.1a.342.342 0 1 1-.485-.483l3.525-3.519h-12.186a.342.342 0 1 1 0-.684h12.186l-3.525-3.519a.342.342 0 0 1 .484-.483l4.11 4.1a.345.345 0 0 1 .073.111.338.338 0 0 1 0 .261.35.35 0 0 1-.073.116zm-7.091-4.345H549.2l3.525 3.519a.342.342 0 0 1-.484.484l-4.109-4.1a.323.323 0 0 1-.074-.111.338.338 0 0 1 0-.261.323.323 0 0 1 .074-.111l4.109-4.1a.342.342 0 1 1 .484.484l-3.525 3.519h12.186a.342.342 0 1 1-.003.677z" transform="translate(-548.063 -806.844)"/></svg>