<svg width="47" height="38" viewBox="0 0 47 38" fill="none" xmlns="http://www.w3.org/2000/svg"><circle cx="12.605" cy="13" r="8.5" stroke="#000"/><path d="M24.47 38a.5.5 0 0 1-.497-.552l.172-1.63C24.866 28.968 19.495 23 12.605 23c-6.89 0-12.261 5.967-11.54 12.818l.172 1.63a.5.5 0 0 1-.995.105l-.171-1.63C-.713 28.481 5.122 22 12.605 22c7.483 0 13.318 6.481 12.534 13.923l-.171 1.63a.5.5 0 0 1-.497.447z" fill="#000"/><path d="M19.605 12c-4.97 0-9-2.462-9-5.5m-4.5 5c1 0 4.5-2.5 4.5-5" stroke="#000" stroke-linecap="round"/><circle cx="33.605" cy="9" r="8.5" stroke="#000"/><path d="M27.105 8c4.97 0 9-2.462 9-5.5m4.5 5c-1 0-4.5-2.5-4.5-5" stroke="#000" stroke-linecap="round"/><path d="M44.974 33.448a.5.5 0 1 0 .994.104l.172-1.629C46.923 24.481 41.088 18 33.605 18a12.555 12.555 0 0 0-9.495 4.316c-.175.2-.15.502.048.68a.517.517 0 0 0 .731-.052A11.56 11.56 0 0 1 33.605 19c6.89 0 12.261 5.967 11.54 12.818l-.171 1.63z" fill="#000"/></svg>