<svg width="22" height="21" viewBox="0 0 22 21" fill="none" xmlns="http://www.w3.org/2000/svg"><path d="M14.74 14.516c-.11-.451-.357-.801-.714-1.007-.354-.204-.78-.248-1.24-.125l-1.431.381-.155-.243a4.193 4.193 0 0 1-.197-.316c-.539-1.033-.906-2.184-1.121-3.524-.098-.662-.118-1.184-.07-1.674.36-.08.709-.177 1.046-.27l.383-.105c.953-.255 1.404-1.038 1.15-1.99l-.333-1.239c-.037-.14-.076-.286-.11-.427a15.68 15.68 0 0 0-.231-.847c-.12-.438-.369-.777-.72-.98-.35-.202-.775-.251-1.222-.141l-.009.002-1.547.422a2.43 2.43 0 0 0-1.396.977c-.554.8-.759 1.725-.864 2.347-.26 1.525-.236 3.092.081 4.94a15.628 15.628 0 0 0 2.47 6.13c.48.696 1.149 1.577 2.099 2.21.058.037.12.077.178.11.664.384 1.36.467 2.07.245.007-.004.014-.004.02-.008.255-.095.522-.16.804-.23.192-.046.39-.097.589-.155.455-.132.804-.39 1.008-.744.206-.357.251-.787.127-1.243l-.664-2.496z" fill="#fff"/></svg>