<svg xmlns="http://www.w3.org/2000/svg" width="80.062" height="68.812" viewBox="0 0 80.062 68.812"><defs><style>.cls-1{fill:#e5001f;fill-rule:evenodd}</style></defs><path id="Forma_1" data-name="Forma 1" class="cls-1" d="M834.487 341.407a1.564 1.564 0 1 0 .459 1.107 1.565 1.565 0 0 0-.459-1.107zm70.619 5.319a1.564 1.564 0 0 0-1.915-1.107l-10.575 2.837-6.639-24.809 10.575-2.838a1.566 1.566 0 0 0-.809-3.025l-12.086 3.242a1.564 1.564 0 0 0-1.057.959l-3.018-1.7a7.434 7.434 0 0 0-6-.567l-2.93.985a10.348 10.348 0 0 0-4.92 3.526l-4.168-2.534a6.723 6.723 0 0 0-5.772-.592l-8.4 2.99.309-1.152a1.567 1.567 0 0 0-1.106-1.918l-12.086-3.243a1.566 1.566 0 0 0-.809 3.025l10.575 2.838-.677 2.53a.014.014 0 0 0 0 .006l-5.96 22.273-10.575-2.837a1.566 1.566 0 0 0-.81 3.025l12.086 3.243a1.557 1.557 0 0 0 1.65-.566l5.6 1.529a4.708 4.708 0 0 0 2.312 4.634 4.648 4.648 0 0 0 2.338.629 4.746 4.746 0 0 0 .967-.1 13.229 13.229 0 0 1 7.531 5.738 4.657 4.657 0 0 0 2.338.628 2.364 2.364 0 0 1 3.08 2.5 4.658 4.658 0 0 0 2.338.629 4.707 4.707 0 0 0 3.5-1.561l.165.095a4.689 4.689 0 0 0 6.4-1.723l.012-.02a4.686 4.686 0 0 0 .525-3.306 4.694 4.694 0 0 0 3.126-5.422 4.68 4.68 0 0 0 .763-.331l9.437-3.752a1.563 1.563 0 0 0 1.1.451 1.585 1.585 0 0 0 .406-.054L904 348.644a1.566 1.566 0 0 0 1.106-1.918zm-51.631 4.217L851.6 354.2a1.565 1.565 0 1 1-2.709-1.566l1.877-3.256a1.565 1.565 0 0 1 2.707 1.565zm5.418 3.133l-1.877 3.255a1.565 1.565 0 0 1-2.709-1.566l1.877-3.256a1.565 1.565 0 0 1 2.709 1.567zm5.417 3.132l-1.877 3.255a1.564 1.564 0 1 1-2.708-1.566l1.876-3.255a1.557 1.557 0 0 1 .95-.73 1.575 1.575 0 0 1 .407-.054 1.567 1.567 0 0 1 1.352 2.35zm5.418 3.132l-1.876 3.255a1.565 1.565 0 1 1-2.709-1.566l1.876-3.255a1.567 1.567 0 0 1 1.358-.783 1.55 1.55 0 0 1 .778.21 1.57 1.57 0 0 1 .573 2.139zm4.126 2.394l-.012.02a1.561 1.561 0 0 1-2.128.574l-.072-.042.795-1.38a4.684 4.684 0 0 0 .549-1.477l.286.166.013.008a1.566 1.566 0 0 1 .569 2.131zm9.58-11.839a4.68 4.68 0 0 0-.094-.747 4.7 4.7 0 0 0 .886-8.529L877.8 337.9a1.565 1.565 0 0 0-1.564 2.712l6.426 3.715a1.566 1.566 0 0 1-1.564 2.713l-6.426-3.715a1.565 1.565 0 0 0-1.564 2.712l6.426 3.716a1.567 1.567 0 0 1 .083 2.656 1.476 1.476 0 0 0-.292.154 1.556 1.556 0 0 1-1.353-.1l-6.426-3.715a1.566 1.566 0 0 0-1.564 2.713l6.426 3.715a1.563 1.563 0 0 1-.378 2.863 1.549 1.549 0 0 1-1.183-.158l-4.122-2.4a4.685 4.685 0 0 1-5.418-3.132 4.691 4.691 0 0 1-5.418-3.132 4.686 4.686 0 0 1-5.418-3.133 4.694 4.694 0 0 0-6.409 1.72l-1.229 2.132-5.918-1.617 5.5-20.556 10.431-3.712a3.612 3.612 0 0 1 3.1.318l4.1 2.493-3.171 5.122a5.082 5.082 0 0 0 7.9 6.285l7.892-7.86a1.566 1.566 0 0 0-2.207-2.221l-7.891 7.861a1.952 1.952 0 0 1-3.034-2.415l4.289-6.928a7.222 7.222 0 0 1 3.83-3.037l2.93-.985a4.306 4.306 0 0 1 3.473.328l5.32 2.992 6.024 22.513zm14.542-9.488a1.567 1.567 0 1 0 .458 1.107 1.576 1.576 0 0 0-.458-1.107zm-32.845-37.168a1.565 1.565 0 0 0-1.564 1.566v7.465a1.564 1.564 0 1 0 3.128 0v-7.465a1.565 1.565 0 0 0-1.564-1.566zm1.106-5.1a1.567 1.567 0 1 0 .458 1.107 1.577 1.577 0 0 0-.458-1.108zm-12.048 13.349l-2.728-4.73a1.564 1.564 0 1 0-2.708 1.566l2.727 4.73a1.565 1.565 0 1 0 2.709-1.567zm26.748-5.3a1.562 1.562 0 0 0-2.136.573l-2.728 4.73a1.565 1.565 0 1 0 2.709 1.566l2.727-4.73a1.567 1.567 0 0 0-.572-2.143z" transform="translate(-825.094 -298.688)"/></svg>