<svg xmlns="http://www.w3.org/2000/svg" width="56.406" height="73.531" viewBox="0 0 56.406 73.531"><defs><style>.cls-1{fill:#e5001f;fill-rule:evenodd}</style></defs><path id="Forma_1" data-name="Forma 1" class="cls-1" d="M554.262 322.843h-2.229a13.352 13.352 0 0 0-18.443-4.006q-.2.126-.392.261a13.484 13.484 0 1 0-25.073 4.113 6.117 6.117 0 0 0-4.125 5.757v41.647a6.134 6.134 0 0 0 6.129 6.124h44.133a6.134 6.134 0 0 0 6.129-6.124v-41.647a6.135 6.135 0 0 0-6.129-6.125zm-13.5-3.677a11.054 11.054 0 0 1 11.05 11.027 10.875 10.875 0 0 1-.634 3.674h-2.655a8.541 8.541 0 0 0-3-10.819 8.709 8.709 0 0 0-9.481 0 8.542 8.542 0 0 0-3 10.819h-2.655a10.875 10.875 0 0 1-.634-3.674 11.02 11.02 0 0 1 11.007-11.027zm5.157 14.311c-.087.133-.18.264-.278.39h-9.724a6.055 6.055 0 0 1 1.477-8.778 6.217 6.217 0 0 1 6.769 0 6.055 6.055 0 0 1 1.754 8.388zM519.937 305.7a11.024 11.024 0 1 1-11.037 11.019 11.028 11.028 0 0 1 11.037-11.019zm-13.485 23.273a3.675 3.675 0 0 1 3.141-3.621 13.458 13.458 0 0 0 17.934 2.5 13.206 13.206 0 0 0-.235 2.346 13.37 13.37 0 0 0 .528 3.675h-17.691a3.676 3.676 0 0 1-3.677-3.675v-1.225zm15.936 28.173a1.225 1.225 0 1 1 1.226-1.225 1.225 1.225 0 0 1-1.226 1.22zm35.552-1.225H537.1a3.675 3.675 0 1 1 0-7.35h20.84v7.35zm0-9.8H537.1a6.125 6.125 0 1 0 0 12.249h20.84v12.249a3.676 3.676 0 0 1-3.678 3.674h-24.518v-5.512l4.086-3.062h2.27a3.673 3.673 0 1 0 0-2.45h-2.677a1.226 1.226 0 0 0-.736.245l-4.9 3.675a1.225 1.225 0 0 0-.49.98v6.124h-3.678v-14.928a3.679 3.679 0 1 0-2.451 0v14.924h-3.678v-9.8a1.224 1.224 0 0 0-.359-.866l-3.319-3.316v-5.842a3.678 3.678 0 1 0-2.452 0v6.349a1.223 1.223 0 0 0 .36.866l3.313 3.32v9.292h-4.9a3.675 3.675 0 0 1-3.677-3.674v-35.557a6.069 6.069 0 0 0 3.677 1.256h44.133a6.07 6.07 0 0 0 3.678-1.256v11.056zm-19.615 18.369a1.226 1.226 0 1 1 1.226 1.225 1.226 1.226 0 0 1-1.226-1.225zm-25.744-12.249a1.225 1.225 0 1 1 1.226-1.225 1.225 1.225 0 0 1-1.226 1.225zm45.359-22.048a3.677 3.677 0 0 1-3.678 3.675h-.529a13.109 13.109 0 0 0-.418-8.575h.947a3.676 3.676 0 0 1 3.678 3.675v1.225zm-38-22.048a8.574 8.574 0 1 0 8.581 8.574 8.577 8.577 0 0 0-8.584-8.574zm0 14.7a6.125 6.125 0 1 1 6.129-6.124 6.127 6.127 0 0 1-6.132 6.122zm15.936-19.6h2.452v2.45h-2.452v-2.45zm0 4.9h2.452v6.124h-2.452v-6.124zm4.9-4.9h2.452v2.45h-2.452v-2.45zm0 4.9h2.452v6.124h-2.452v-6.124z" transform="translate(-504 -303.219)"/></svg>