<svg xmlns="http://www.w3.org/2000/svg" width="87.781" height="74.062" viewBox="0 0 87.781 74.062"><defs><style>.cls-1{fill:#e5001f;fill-rule:evenodd}</style></defs><path id="Forma_1" data-name="Forma 1" class="cls-1" d="M240.377 301.3h-76.968a5.416 5.416 0 0 0-5.409 5.413v52.248a5.416 5.416 0 0 0 5.409 5.411h26.032l-1.053 8.426h-4.363a1.287 1.287 0 0 0 0 2.573h35.736a1.287 1.287 0 0 0 0-2.573H215.4l-1.053-8.426h26.032a5.417 5.417 0 0 0 5.409-5.411v-52.248a5.416 5.416 0 0 0-5.411-5.413zm-49.4 71.5l1.053-8.426h4.733l.464 1.857a4.806 4.806 0 0 0 9.326 0l.465-1.857h4.732l1.053 8.426H190.98zm8.437-8.426h4.952l-.308 1.233a2.234 2.234 0 0 1-4.336 0zm43.8-5.411a2.841 2.841 0 0 1-2.837 2.838h-76.968a2.841 2.841 0 0 1-2.837-2.838v-52.25a2.841 2.841 0 0 1 2.837-2.838h76.968a2.841 2.841 0 0 1 2.837 2.838v52.248zM230.756 306.8h-65.972a1.286 1.286 0 0 0-1.286 1.286v49.5a1.286 1.286 0 0 0 1.286 1.286h2.748a1.287 1.287 0 0 0 0-2.573h-1.462v-46.924h64.686a1.287 1.287 0 0 0 0-2.575zm8.247 0h-2.749a1.287 1.287 0 0 0 0 2.573h1.463V356.3H173.03a1.287 1.287 0 0 0 0 2.573H239a1.286 1.286 0 0 0 1.286-1.286v-49.5A1.285 1.285 0 0 0 239 306.8zm-19.6 14.243a1.285 1.285 0 0 0-.954-.493l-30.238-1.375h-.07a2.661 2.661 0 0 0-1.069-1.439l-3.7-2.47a1.286 1.286 0 0 0-1.427 2.141l3.7 2.469a.092.092 0 0 1 .036.05l4.717 16.514a4.038 4.038 0 0 0 .7 1.377l-1.726 3.453a2.668 2.668 0 0 0 .776 3.315 4.035 4.035 0 1 0 7.262.536h11.72a4.034 4.034 0 1 0 7.37-.333 1.286 1.286 0 0 0-.862-2.239h-23.891a.089.089 0 0 1-.079-.128l1.59-3.181a4.035 4.035 0 0 0 1 .128 4.108 4.108 0 0 0 .481-.028l18.069-2.127a5.4 5.4 0 0 0 4.673-4.313l2.161-10.811a1.285 1.285 0 0 0-.242-1.044zm-6.511 24.078a1.464 1.464 0 1 1-1.462 1.463 1.464 1.464 0 0 1 1.458-1.461zm-19.241 0a1.464 1.464 0 1 1-1.463 1.463 1.464 1.464 0 0 1 1.459-1.461zm-3.154-17.7l-1.611-5.643 5.141.234.891 5.409h-4.421zm3.951 9.36a1.457 1.457 0 0 1-1.578-1.052L191.228 330h4.11l1.081 6.555zm7.538-.887l-3.006.353-1.035-6.247h4.037v5.9zm0-8.473h-4.461l-.872-5.289 5.333.242v5.047zm6.512 7.706l-3.94.464V330h4.4zm.7-7.706h-4.637V322.5l5.062.23zm5.773 4.971a2.831 2.831 0 0 1-2.451 2.262l-1.409.166.43-4.82h3.9zm.993-4.971h-4.183l.414-4.583 4.643.211z" transform="translate(-158 -301.313)"/></svg>